# xmcd CD database file
#
# Track frame offsets:
#	150
#	14220
#	27720
#	42528
#	54553
#	82285
#	98926
#	111930
#	125703
#	140001
#
# Disc length: 2130 seconds
#
# Revision: 0
# Processed by: cddbd v1.5.1PL0 Copyright (c) Steve Scherf et al.
# Submitted via: CDex 1.51
#
DISCID=a008500a
DTITLE=Astrud Gilberto - Greatest Hits
DYEAR=2002
DGENRE=Jazz
TTITLE0=We'll make today last
TTITLE1=Mamae eu quero/Chica chica boom chic
TTITLE2=That girl from Ipanema
TTITLE3=Wanting you
TTITLE4=All I've got
TTITLE5=Meu piao
TTITLE6=The puppy song
TTITLE7=Black magic
TTITLE8=Love for sale
TTITLE9=Far away
EXTD=YEAR: 2002
EXTT0=
EXTT1=
EXTT2=
EXTT3=
EXTT4=
EXTT5=
EXTT6=
EXTT7=
EXTT8=
EXTT9=
PLAYORDER=
